<?xml version="1.0" standalone="no"?>
<!DOCTYPE svg PUBLIC "-//W3C//DTD SVG 20010904//EN"
 "http://www.w3.org/TR/2001/REC-SVG-20010904/DTD/svg10.dtd">
<svg version="1.0" xmlns="http://www.w3.org/2000/svg"
 width="500.000000pt" height="500.000000pt" viewBox="0 0 500.000000 500.000000"
 preserveAspectRatio="xMidYMid meet">

<g transform="translate(0.000000,500.000000) scale(0.100000,-0.100000)"
fill="#000000" stroke="none">
<path d="M1386 3364 c-44 -16 -65 -31 -26 -18 14 4 45 13 70 20 29 8 36 13 20
13 -14 0 -43 -7 -64 -15z"/>
<path d="M1460 3320 c0 -6 7 -10 15 -10 8 0 15 2 15 4 0 2 -7 6 -15 10 -8 3
-15 1 -15 -4z"/>
<path d="M1506 3305 c-3 -8 -1 -15 4 -15 6 0 10 7 10 15 0 8 -2 15 -4 15 -2 0
-6 -7 -10 -15z"/>
<path d="M1546 3295 c16 -13 17 -16 4 -25 -11 -8 -8 -9 13 -4 22 5 32 2 43
-15 8 -11 23 -21 32 -21 14 1 14 2 -3 12 -11 6 -24 17 -28 25 -4 7 -14 13 -21
13 -8 0 -19 7 -26 15 -7 8 -17 15 -23 15 -6 0 -2 -7 9 -15z"/>
<path d="M1810 3280 c0 -5 5 -10 10 -10 6 0 10 5 10 10 0 6 -4 10 -10 10 -5 0
-10 -4 -10 -10z"/>
<path d="M1850 3280 c0 -5 5 -10 10 -10 6 0 10 5 10 10 0 6 -4 10 -10 10 -5 0
-10 -4 -10 -10z"/>
<path d="M1890 3280 c0 -5 5 -10 10 -10 6 0 10 5 10 10 0 6 -4 10 -10 10 -5 0
-10 -4 -10 -10z"/>
<path d="M1930 3280 c0 -5 5 -10 10 -10 6 0 10 5 10 10 0 6 -4 10 -10 10 -5 0
-10 -4 -10 -10z"/>
<path d="M1970 3280 c0 -5 5 -10 10 -10 6 0 10 5 10 10 0 6 -4 10 -10 10 -5 0
-10 -4 -10 -10z"/>
<path d="M2010 3280 c0 -5 5 -10 10 -10 6 0 10 5 10 10 0 6 -4 10 -10 10 -5 0
-10 -4 -10 -10z"/>
<path d="M2050 3280 c0 -5 5 -10 10 -10 6 0 10 5 10 10 0 6 -4 10 -10 10 -5 0
-10 -4 -10 -10z"/>
<path d="M2090 3280 c0 -5 5 -10 10 -10 6 0 10 5 10 10 0 6 -4 10 -10 10 -5 0
-10 -4 -10 -10z"/>
<path d="M2130 3280 c0 -5 5 -10 10 -10 6 0 10 5 10 10 0 6 -4 10 -10 10 -5 0
-10 -4 -10 -10z"/>
<path d="M2170 3280 c0 -5 5 -10 10 -10 6 0 10 5 10 10 0 6 -4 10 -10 10 -5 0
-10 -4 -10 -10z"/>
<path d="M2210 3280 c0 -5 5 -10 10 -10 6 0 10 5 10 10 0 6 -4 10 -10 10 -5 0
-10 -4 -10 -10z"/>
<path d="M2250 3280 c0 -5 5 -10 10 -10 6 0 10 5 10 10 0 6 -4 10 -10 10 -5 0
-10 -4 -10 -10z"/>
<path d="M2290 3280 c0 -5 5 -10 10 -10 6 0 10 5 10 10 0 6 -4 10 -10 10 -5 0
-10 -4 -10 -10z"/>
<path d="M2330 3280 c0 -5 5 -10 10 -10 6 0 10 5 10 10 0 6 -4 10 -10 10 -5 0
-10 -4 -10 -10z"/>
<path d="M2370 3280 c0 -5 5 -10 10 -10 6 0 10 5 10 10 0 6 -4 10 -10 10 -5 0
-10 -4 -10 -10z"/>
<path d="M2410 3280 c0 -5 5 -10 10 -10 6 0 10 5 10 10 0 6 -4 10 -10 10 -5 0
-10 -4 -10 -10z"/>
<path d="M2450 3280 c0 -5 5 -10 10 -10 6 0 10 5 10 10 0 6 -4 10 -10 10 -5 0
-10 -4 -10 -10z"/>
<path d="M2490 3280 c0 -5 5 -10 10 -10 6 0 10 5 10 10 0 6 -4 10 -10 10 -5 0
-10 -4 -10 -10z"/>
<path d="M2530 3280 c0 -5 5 -10 10 -10 6 0 10 5 10 10 0 6 -4 10 -10 10 -5 0
-10 -4 -10 -10z"/>
<path d="M2570 3280 c0 -5 5 -10 10 -10 6 0 10 5 10 10 0 6 -4 10 -10 10 -5 0
-10 -4 -10 -10z"/>
<path d="M2610 3280 c0 -5 5 -10 10 -10 6 0 10 5 10 10 0 6 -4 10 -10 10 -5 0
-10 -4 -10 -10z"/>
<path d="M2650 3280 c0 -5 5 -10 10 -10 6 0 10 5 10 10 0 6 -4 10 -10 10 -5 0
-10 -4 -10 -10z"/>
<path d="M2690 3280 c0 -5 5 -10 10 -10 6 0 10 5 10 10 0 6 -4 10 -10 10 -5 0
-10 -4 -10 -10z"/>
<path d="M2730 3280 c0 -5 5 -10 10 -10 6 0 10 5 10 10 0 6 -4 10 -10 10 -5 0
-10 -4 -10 -10z"/>
<path d="M2770 3280 c0 -5 5 -10 10 -10 6 0 10 5 10 10 0 6 -4 10 -10 10 -5 0
-10 -4 -10 -10z"/>
<path d="M2810 3280 c0 -5 5 -10 10 -10 6 0 10 5 10 10 0 6 -4 10 -10 10 -5 0
-10 -4 -10 -10z"/>
<path d="M2850 3280 c0 -5 5 -10 10 -10 6 0 10 5 10 10 0 6 -4 10 -10 10 -5 0
-10 -4 -10 -10z"/>
<path d="M2890 3280 c0 -5 5 -10 10 -10 6 0 10 5 10 10 0 6 -4 10 -10 10 -5 0
-10 -4 -10 -10z"/>
<path d="M2930 3280 c0 -5 5 -10 10 -10 6 0 10 5 10 10 0 6 -4 10 -10 10 -5 0
-10 -4 -10 -10z"/>
<path d="M2970 3280 c0 -5 5 -10 10 -10 6 0 10 5 10 10 0 6 -4 10 -10 10 -5 0
-10 -4 -10 -10z"/>
<path d="M3010 3280 c0 -5 5 -10 10 -10 6 0 10 5 10 10 0 6 -4 10 -10 10 -5 0
-10 -4 -10 -10z"/>
<path d="M3050 3280 c0 -5 5 -10 10 -10 6 0 10 5 10 10 0 6 -4 10 -10 10 -5 0
-10 -4 -10 -10z"/>
<path d="M3090 3280 c0 -5 5 -10 10 -10 6 0 10 5 10 10 0 6 -4 10 -10 10 -5 0
-10 -4 -10 -10z"/>
<path d="M3130 3280 c0 -5 5 -10 11 -10 5 0 7 5 4 10 -3 6 -8 10 -11 10 -2 0
-4 -4 -4 -10z"/>
<path d="M3170 3280 c0 -5 5 -10 10 -10 6 0 10 5 10 10 0 6 -4 10 -10 10 -5 0
-10 -4 -10 -10z"/>
<path d="M3210 3280 c0 -5 5 -10 11 -10 5 0 7 5 4 10 -3 6 -8 10 -11 10 -2 0
-4 -4 -4 -10z"/>
<path d="M3250 3280 c0 -5 5 -10 11 -10 5 0 7 5 4 10 -3 6 -8 10 -11 10 -2 0
-4 -4 -4 -10z"/>
<path d="M3290 3280 c0 -5 5 -10 11 -10 5 0 7 5 4 10 -3 6 -8 10 -11 10 -2 0
-4 -4 -4 -10z"/>
<path d="M3330 3280 c0 -5 5 -10 10 -10 6 0 10 5 10 10 0 6 -4 10 -10 10 -5 0
-10 -4 -10 -10z"/>
<path d="M3370 3280 c0 -5 5 -10 10 -10 6 0 10 5 10 10 0 6 -4 10 -10 10 -5 0
-10 -4 -10 -10z"/>
<path d="M3410 3280 c0 -5 5 -10 10 -10 6 0 10 5 10 10 0 6 -4 10 -10 10 -5 0
-10 -4 -10 -10z"/>
<path d="M3450 3280 c0 -5 5 -10 10 -10 6 0 10 5 10 10 0 6 -4 10 -10 10 -5 0
-10 -4 -10 -10z"/>
<path d="M3490 3280 c0 -5 5 -10 10 -10 6 0 10 5 10 10 0 6 -4 10 -10 10 -5 0
-10 -4 -10 -10z"/>
<path d="M3530 3280 c0 -5 5 -10 10 -10 6 0 10 5 10 10 0 6 -4 10 -10 10 -5 0
-10 -4 -10 -10z"/>
<path d="M3570 3280 c0 -5 5 -10 10 -10 6 0 10 5 10 10 0 6 -4 10 -10 10 -5 0
-10 -4 -10 -10z"/>
<path d="M3610 3280 c0 -5 5 -10 10 -10 6 0 10 5 10 10 0 6 -4 10 -10 10 -5 0
-10 -4 -10 -10z"/>
<path d="M3650 3280 c0 -5 5 -10 10 -10 6 0 10 5 10 10 0 6 -4 10 -10 10 -5 0
-10 -4 -10 -10z"/>
<path d="M1155 3250 c-44 -17 -113 -42 -153 -56 -40 -15 -71 -28 -69 -30 2 -2
55 14 118 37 63 22 133 48 157 56 23 8 42 17 42 19 0 7 -14 3 -95 -26z"/>
<path d="M1418 3233 c7 -3 16 -2 19 1 4 3 -2 6 -13 5 -11 0 -14 -3 -6 -6z"/>
<path d="M1270 3210 c8 -5 22 -9 30 -9 10 0 8 3 -5 9 -27 12 -43 12 -25 0z"/>
<path d="M1328 3213 c7 -3 16 -2 19 1 4 3 -2 6 -13 5 -11 0 -14 -3 -6 -6z"/>
<path d="M1620 3210 c-12 -8 -9 -10 13 -10 16 0 26 -4 22 -10 -3 -6 4 -10 16
-10 l22 0 -23 20 c-26 23 -29 23 -50 10z"/>
<path d="M1118 3173 c-65 -20 -116 -38 -114 -41 7 -6 221 50 224 58 2 5 13 6
25 3 18 -4 19 -3 7 6 -19 13 -5 16 -142 -26z"/>
<path d="M1498 3203 c6 -2 18 -2 25 0 6 3 1 5 -13 5 -14 0 -19 -2 -12 -5z"/>
<path d="M1707 3170 c3 -11 7 -20 9 -20 2 0 4 9 4 20 0 11 -4 20 -9 20 -5 0
-7 -9 -4 -20z"/>
<path d="M1598 3173 c7 -3 16 -2 19 1 4 3 -2 6 -13 5 -11 0 -14 -3 -6 -6z"/>
<path d="M1185 3140 c-71 -15 -125 -28 -120 -29 23 -3 265 44 265 51 0 10 11
11 -145 -22z"/>
<path d="M550 3110 c-10 -6 -11 -10 -2 -10 6 0 12 -7 12 -14 0 -8 15 -26 33
-40 38 -29 87 -35 87 -11 0 8 -7 15 -16 15 -8 0 -12 5 -8 11 4 7 -8 10 -37 8
-39 -3 -44 -1 -47 18 -3 18 2 22 35 26 l38 4 -40 1 c-22 1 -47 -3 -55 -8z m80
-65 c16 -19 1 -19 -24 0 -16 12 -17 15 -4 15 8 0 21 -7 28 -15z"/>
<path d="M942 3093 c-40 -9 -71 -18 -68 -20 4 -5 168 26 175 33 8 7 -33 2
-107 -13z"/>
<path d="M700 3076 c0 -8 3 -16 8 -19 4 -2 1 -2 -7 0 -9 2 -12 -4 -9 -22 12
-61 -75 -54 -132 11 -17 20 -33 35 -35 33 -1 -2 1 -22 5 -44 7 -34 8 -36 9
-11 l1 30 28 -26 c34 -34 79 -51 111 -43 l24 6 -6 -353 c-4 -194 -7 -500 -7
-680 0 -299 -1 -328 -17 -328 -9 0 -13 -3 -10 -7 4 -3 17 -1 30 5 12 6 31 13
42 15 15 3 12 5 -7 6 l-28 1 0 308 c0 169 3 479 7 690 l6 382 25 0 c14 0 66 5
116 12 l91 12 -50 7 c-27 4 -66 5 -85 3 -25 -3 -29 -2 -16 4 31 13 3 23 -35
12 -22 -7 -35 -7 -37 0 -5 15 -22 12 -22 -4z"/>
<path d="M828 3083 c7 -3 16 -2 19 1 4 3 -2 6 -13 5 -11 0 -14 -3 -6 -6z"/>
<path d="M1118 3083 c7 -3 16 -2 19 1 4 3 -2 6 -13 5 -11 0 -14 -3 -6 -6z"/>
<path d="M1038 3073 c6 -2 18 -2 25 0 6 3 1 5 -13 5 -14 0 -19 -2 -12 -5z"/>
<path d="M968 3063 c6 -2 18 -2 25 0 6 3 1 5 -13 5 -14 0 -19 -2 -12 -5z"/>
<path d="M3681 2910 c-134 -32 -162 -198 -47 -284 39 -30 143 -30 183 0 54 40
75 83 71 142 -3 32 -13 64 -25 80 -39 52 -114 78 -182 62z m120 -68 c24 -21
32 -39 36 -73 5 -41 2 -50 -26 -81 -17 -20 -44 -38 -61 -41 -59 -12 -125 32
-136 90 -19 103 108 175 187 105z"/>
<path d="M1850 2755 l0 -155 115 0 115 0 0 25 c0 25 -1 25 -91 25 l-90 0 3 43
3 42 78 3 c69 3 77 5 77 22 0 18 -7 20 -80 20 l-80 0 0 45 0 45 90 0 c83 0 90
1 90 20 0 19 -7 20 -115 20 l-115 0 0 -155z"/>
<path d="M2430 2754 l0 -156 100 4 c88 3 102 6 125 28 16 15 25 34 25 55 0 36
-24 75 -47 75 -12 0 -9 7 11 25 35 32 35 76 0 104 -23 18 -41 21 -120 21 l-94
0 0 -156z m178 104 c36 -36 -7 -78 -80 -78 l-48 0 0 45 0 45 58 0 c32 0 63 -5
70 -12z m3 -128 c21 -12 25 -50 7 -68 -7 -7 -39 -12 -75 -12 l-63 0 0 45 0 45
56 0 c30 0 64 -5 75 -10z"/>
<path d="M2750 2755 l0 -155 25 0 25 0 0 155 0 155 -25 0 -25 0 0 -155z"/>
<path d="M2890 2755 l0 -155 83 0 c95 0 146 20 161 61 13 37 0 78 -30 91 -25
12 -25 12 -5 27 11 9 23 30 27 48 5 26 1 37 -19 57 -24 24 -32 26 -122 26
l-95 0 0 -155z m174 99 c37 -37 -1 -74 -76 -74 l-48 0 0 45 0 45 54 0 c36 0
60 -5 70 -16z m8 -131 c21 -19 23 -44 6 -61 -7 -7 -39 -12 -75 -12 l-63 0 0
45 0 45 57 0 c38 0 62 -5 75 -17z"/>
<path d="M3210 2755 l0 -155 90 0 c89 0 90 0 90 25 0 24 -2 25 -65 25 l-65 0
0 130 0 130 -25 0 -25 0 0 -155z"/>
<path d="M3450 2755 l0 -155 25 0 25 0 0 155 0 155 -25 0 -25 0 0 -155z"/>
<path d="M2130 2735 c0 -12 13 -15 55 -15 42 0 55 3 55 15 0 12 -13 15 -55 15
-42 0 -55 -3 -55 -15z"/>
<path d="M1854 2338 c3 -9 10 -35 16 -57 6 -23 14 -41 19 -41 4 0 13 18 20 41
7 23 15 48 18 57 4 10 2 13 -5 8 -6 -4 -14 -22 -18 -41 -6 -33 -23 -49 -24
-22 -1 6 -8 26 -16 42 -8 17 -12 22 -10 13z"/>
<path d="M1977 2343 c-13 -12 -7 -81 8 -93 34 -28 78 29 57 75 -6 14 -16 25
-22 25 -7 0 -4 -7 4 -16 20 -19 20 -44 2 -69 -20 -28 -46 -12 -46 28 0 18 5
38 12 45 7 7 8 12 2 12 -6 0 -14 -3 -17 -7z"/>
<path d="M2091 2333 c0 -11 3 -13 6 -5 2 6 9 12 14 12 14 0 11 -88 -3 -93 -7
-3 1 -5 17 -5 17 0 24 2 18 5 -8 3 -13 23 -13 48 0 33 4 45 18 48 9 3 0 5 -20
6 -30 1 -38 -3 -37 -16z"/>
<path d="M2211 2293 c1 -32 4 -46 6 -30 2 15 7 27 11 27 3 0 17 -12 30 -27
l23 -28 -16 27 c-15 24 -15 27 0 36 28 15 14 47 -23 50 l-32 3 1 -58z m57 30
c-2 -10 -13 -19 -26 -21 -17 -3 -22 2 -22 17 0 16 6 21 26 21 19 0 25 -5 22
-17z"/>
<path d="M2330 2295 l0 -55 33 1 c30 2 30 2 5 6 -35 5 -39 40 -5 46 l22 4 -22
2 c-35 2 -31 39 5 44 25 4 25 4 -5 6 l-33 1 0 -55z"/>
<path d="M2572 2298 l-2 -58 33 1 c29 2 30 2 5 6 -25 4 -27 9 -31 56 l-3 52
-2 -57z"/>
<path d="M2687 2343 c-13 -12 -7 -81 8 -93 22 -18 53 -3 60 30 7 30 -8 70 -26
70 -6 0 -3 -7 5 -16 20 -19 20 -44 2 -69 -20 -28 -46 -12 -46 28 0 18 5 38 12
45 7 7 8 12 2 12 -6 0 -14 -3 -17 -7z"/>
<path d="M2805 2340 c-13 -21 -8 -72 9 -88 18 -18 46 -9 54 19 2 8 -2 5 -10
-5 -22 -29 -48 -14 -48 27 0 18 5 38 12 45 9 9 9 12 1 12 -7 0 -15 -5 -18 -10z"/>
<path d="M2861 2334 c0 -11 3 -14 6 -6 3 7 2 16 -1 19 -3 4 -6 -2 -5 -13z"/>
<path d="M2938 2343 c15 -6 16 -75 0 -91 -9 -9 -5 -12 18 -11 16 0 23 3 17 6
-8 3 -13 23 -13 48 0 25 5 45 13 48 6 3 -1 5 -18 5 -16 0 -24 -2 -17 -5z"/>
<path d="M3039 2326 c-15 -32 -4 -73 22 -81 21 -7 49 10 49 29 0 6 -5 3 -11
-6 -13 -24 -36 -23 -49 1 -14 27 -13 47 6 65 8 9 11 16 4 16 -6 0 -15 -11 -21
-24z"/>
<path d="M3080 2345 c0 -2 7 -8 15 -15 12 -10 15 -10 15 2 0 8 -7 15 -15 15
-8 0 -15 -1 -15 -2z"/>
<path d="M3175 2295 c0 -48 3 -55 20 -55 15 0 16 3 7 12 -16 16 -15 85 1 91 6
3 3 6 -8 6 -18 1 -20 -5 -20 -54z"/>
<path d="M3270 2295 l0 -55 38 1 c36 1 36 2 7 8 -27 6 -30 10 -32 48 -1 40 0
42 30 46 30 4 30 4 -5 5 l-38 2 0 -55z"/>
<path d="M3392 2298 l-2 -58 38 1 c36 1 36 2 7 8 -27 6 -31 10 -36 56 l-6 50
-1 -57z"/>
<path d="M3630 2295 c0 -43 3 -55 16 -55 32 0 54 20 54 50 0 46 -10 60 -41 60
-28 0 -29 -1 -29 -55z m58 12 c4 -31 -12 -57 -34 -57 -10 0 -14 14 -14 46 0
41 2 45 23 42 16 -2 23 -11 25 -31z"/>
<path d="M3750 2295 l0 -55 33 1 c30 2 30 2 5 6 -26 4 -28 8 -28 48 0 40 2 44
28 48 25 4 25 4 -5 6 l-33 1 0 -55z"/>
<path d="M2848 2293 c6 -2 18 -2 25 0 6 3 1 5 -13 5 -14 0 -19 -2 -12 -5z"/>
<path d="M4125 2200 c3 -5 11 -10 16 -10 6 0 7 5 4 10 -3 6 -11 10 -16 10 -6
0 -7 -4 -4 -10z"/>
<path d="M1862 2158 c-17 -17 -15 -64 4 -82 18 -19 20 -19 45 -6 24 14 26 50
2 49 -11 0 -13 -3 -5 -6 17 -7 15 -30 -4 -37 -32 -12 -54 26 -38 68 7 19 35
21 52 4 9 -9 12 -8 12 5 0 20 -49 24 -68 5z"/>
<path d="M1970 2115 l0 -55 38 2 c36 1 36 1 5 5 -25 3 -33 9 -33 24 0 14 7 19
28 20 l27 1 -25 7 c-39 11 -38 39 2 44 l33 4 -37 1 -38 2 0 -55z"/>
<path d="M2096 2161 c-9 -14 4 -41 19 -41 7 0 19 -7 26 -16 11 -14 10 -18 -6
-31 -18 -14 -18 -15 -2 -9 10 3 21 6 23 6 2 0 4 9 4 20 0 12 -12 26 -31 35
-25 13 -28 19 -18 31 7 9 8 14 1 14 -6 0 -13 -4 -16 -9z"/>
<path d="M2136 2163 c5 -5 12 -12 16 -18 4 -6 8 -2 8 8 0 9 -7 17 -17 17 -9 0
-12 -3 -7 -7z"/>
<path d="M2210 2160 c0 -5 7 -7 15 -4 12 5 15 -3 15 -39 0 -27 -5 -47 -12 -50
-7 -3 1 -5 17 -5 17 0 24 2 18 5 -15 5 -18 93 -4 93 5 0 12 -6 14 -12 3 -8 6
-6 6 5 1 13 -7 17 -34 17 -19 0 -35 -4 -35 -10z"/>
<path d="M2348 2163 c15 -6 16 -75 0 -91 -9 -9 -5 -12 18 -11 16 0 23 3 17 6
-8 3 -13 23 -13 48 0 25 5 45 13 48 6 3 -1 5 -18 5 -16 0 -24 -2 -17 -5z"/>
<path d="M2446 2154 c-24 -63 17 -119 58 -78 28 27 15 94 -17 94 -5 0 -1 -7 7
-16 33 -33 6 -103 -29 -74 -18 15 -20 61 -3 78 8 8 8 12 1 12 -6 0 -14 -7 -17
-16z"/>
<path d="M2572 2113 l1 -58 6 45 6 45 13 -37 c21 -59 32 -55 31 9 -2 54 -2 55
-8 18 l-7 -40 -14 38 c-20 53 -30 46 -28 -20z"/>
<path d="M2800 2115 c0 -46 3 -55 18 -55 32 0 55 25 54 58 -1 43 -8 52 -43 52
-29 0 -29 -1 -29 -55z m58 6 c3 -33 -9 -51 -35 -51 -9 0 -13 16 -13 46 0 41 2
45 23 42 17 -2 23 -11 25 -37z"/>
<path d="M2920 2115 l0 -55 33 1 c30 2 30 2 5 6 -35 5 -39 40 -5 46 l22 4 -22
2 c-35 2 -31 39 5 44 25 4 25 4 -5 6 l-33 1 0 -55z"/>
<path d="M3160 2115 c0 -46 3 -55 18 -55 10 0 27 6 38 14 15 11 16 17 7 27 -7
7 -9 24 -6 40 5 27 3 29 -26 29 -31 0 -31 0 -31 -55z m50 31 c0 -8 -5 -18 -11
-22 -8 -5 -6 -10 5 -16 14 -8 15 -13 5 -24 -23 -28 -37 -16 -37 31 0 38 3 45
19 45 10 0 19 -6 19 -14z"/>
<path d="M3288 2163 c7 -3 12 -23 12 -48 0 -25 -5 -45 -12 -48 -7 -3 1 -5 17
-5 17 0 24 2 18 5 -8 3 -13 23 -13 48 0 25 5 45 13 48 6 3 -1 5 -18 5 -16 0
-24 -2 -17 -5z"/>
<path d="M3390 2116 c0 -51 2 -56 23 -56 36 0 45 13 44 60 -2 43 -3 45 -34 48
l-33 3 0 -55z m60 33 c0 -7 -8 -18 -17 -25 -17 -13 -17 -13 0 -14 12 0 17 -6
15 -17 -2 -10 -12 -18 -23 -18 -17 0 -20 7 -22 43 -1 38 1 42 23 42 13 0 24
-5 24 -11z"/>
<path d="M3512 2118 l-2 -58 38 2 c36 1 36 1 5 5 -31 4 -32 6 -36 56 l-3 52
-2 -57z"/>
<path d="M3648 2163 c7 -3 12 -23 12 -48 0 -25 -5 -45 -12 -48 -7 -3 1 -5 17
-5 17 0 24 2 18 5 -8 3 -13 23 -13 48 0 25 5 45 13 48 6 3 -1 5 -18 5 -16 0
-24 -2 -17 -5z"/>
<path d="M3746 2154 c-18 -46 0 -94 36 -94 33 0 52 72 26 98 -17 17 -55 15
-62 -4z m58 -10 c17 -44 -10 -88 -39 -64 -15 13 -21 61 -8 73 12 13 41 7 47
-9z"/>
<path d="M3861 2153 c0 -11 3 -13 6 -5 12 30 25 8 21 -38 -3 -44 -1 -50 17
-50 15 0 16 3 7 12 -17 17 -16 88 2 88 8 0 17 -6 19 -12 3 -8 6 -6 6 5 1 13
-7 17 -39 17 -32 0 -40 -4 -39 -17z"/>
<path d="M3982 2115 c1 -33 3 -48 5 -32 3 21 10 27 28 27 18 0 25 -6 28 -27 2
-16 4 -1 5 32 0 39 -2 51 -7 35 -4 -16 -14 -25 -26 -25 -12 0 -22 9 -26 25 -5
16 -7 4 -7 -35z"/>
<path d="M4100 2115 l0 -55 38 2 c36 1 36 1 5 5 -25 3 -33 9 -33 24 0 13 7 19
23 20 l22 0 -22 9 c-34 14 -29 38 10 43 31 4 31 4 -5 5 l-38 2 0 -55z"/>
<path d="M4220 2149 c-7 -11 -9 -31 -6 -42 7 -27 52 -77 69 -77 7 0 4 5 -6 11
-17 10 -17 12 -2 29 20 23 17 91 -5 98 -12 4 -13 2 -2 -9 18 -19 15 -78 -4
-86 -8 -3 -20 -1 -26 5 -16 16 -14 72 3 83 9 6 10 9 2 9 -7 0 -17 -9 -23 -21z"/>
<path d="M4342 2123 c-2 -44 1 -53 19 -58 12 -4 26 -2 31 3 15 15 23 102 10
102 -6 0 -12 -21 -14 -47 -2 -35 -7 -48 -18 -48 -11 0 -17 15 -21 50 l-6 50
-1 -52z"/>
<path d="M4460 2115 l0 -55 33 1 c30 2 30 2 5 6 -35 5 -39 40 -5 46 l22 4 -22
2 c-35 2 -31 39 5 44 25 4 25 4 -5 6 l-33 1 0 -55z"/>
<path d="M544 1910 c0 -118 2 -167 3 -107 2 59 2 155 0 215 -1 59 -3 10 -3
-108z"/>
<path d="M2090 2074 c0 -8 5 -12 10 -9 6 4 8 11 5 16 -9 14 -15 11 -15 -7z"/>
<path d="M1691 1864 c0 -11 3 -14 6 -6 3 7 2 16 -1 19 -3 4 -6 -2 -5 -13z"/>
<path d="M1608 1813 c7 -3 16 -2 19 1 4 3 -2 6 -13 5 -11 0 -14 -3 -6 -6z"/>
<path d="M1458 1783 c7 -3 16 -2 19 1 4 3 -2 6 -13 5 -11 0 -14 -3 -6 -6z"/>
<path d="M1408 1773 c7 -3 16 -2 19 1 4 3 -2 6 -13 5 -11 0 -14 -3 -6 -6z"/>
<path d="M1268 1743 c7 -3 16 -2 19 1 4 3 -2 6 -13 5 -11 0 -14 -3 -6 -6z"/>
<path d="M1218 1733 c7 -3 16 -2 19 1 4 3 -2 6 -13 5 -11 0 -14 -3 -6 -6z"/>
<path d="M1810 1720 c0 -5 5 -10 10 -10 6 0 10 5 10 10 0 6 -4 10 -10 10 -5 0
-10 -4 -10 -10z"/>
<path d="M1850 1720 c0 -5 5 -10 10 -10 6 0 10 5 10 10 0 6 -4 10 -10 10 -5 0
-10 -4 -10 -10z"/>
<path d="M1890 1719 c0 -5 5 -7 10 -4 6 3 10 8 10 11 0 2 -4 4 -10 4 -5 0 -10
-5 -10 -11z"/>
<path d="M1930 1720 c0 -5 5 -10 10 -10 6 0 10 5 10 10 0 6 -4 10 -10 10 -5 0
-10 -4 -10 -10z"/>
<path d="M1970 1719 c0 -5 5 -7 10 -4 6 3 10 8 10 11 0 2 -4 4 -10 4 -5 0 -10
-5 -10 -11z"/>
<path d="M2010 1719 c0 -5 5 -7 10 -4 6 3 10 8 10 11 0 2 -4 4 -10 4 -5 0 -10
-5 -10 -11z"/>
<path d="M2050 1719 c0 -5 5 -7 10 -4 6 3 10 8 10 11 0 2 -4 4 -10 4 -5 0 -10
-5 -10 -11z"/>
<path d="M2090 1719 c0 -5 5 -7 10 -4 6 3 10 8 10 11 0 2 -4 4 -10 4 -5 0 -10
-5 -10 -11z"/>
<path d="M2130 1719 c0 -5 5 -7 10 -4 6 3 10 8 10 11 0 2 -4 4 -10 4 -5 0 -10
-5 -10 -11z"/>
<path d="M2170 1719 c0 -5 5 -7 10 -4 6 3 10 8 10 11 0 2 -4 4 -10 4 -5 0 -10
-5 -10 -11z"/>
<path d="M2210 1719 c0 -5 5 -7 10 -4 6 3 10 8 10 11 0 2 -4 4 -10 4 -5 0 -10
-5 -10 -11z"/>
<path d="M2250 1719 c0 -5 5 -7 10 -4 6 3 10 8 10 11 0 2 -4 4 -10 4 -5 0 -10
-5 -10 -11z"/>
<path d="M2290 1719 c0 -5 5 -7 10 -4 6 3 10 8 10 11 0 2 -4 4 -10 4 -5 0 -10
-5 -10 -11z"/>
<path d="M2330 1719 c0 -5 5 -7 10 -4 6 3 10 8 10 11 0 2 -4 4 -10 4 -5 0 -10
-5 -10 -11z"/>
<path d="M2370 1719 c0 -5 5 -7 10 -4 6 3 10 8 10 11 0 2 -4 4 -10 4 -5 0 -10
-5 -10 -11z"/>
<path d="M2410 1719 c0 -5 5 -7 10 -4 6 3 10 8 10 11 0 2 -4 4 -10 4 -5 0 -10
-5 -10 -11z"/>
<path d="M2450 1719 c0 -5 5 -7 10 -4 6 3 10 8 10 11 0 2 -4 4 -10 4 -5 0 -10
-5 -10 -11z"/>
<path d="M2490 1719 c0 -5 5 -7 10 -4 6 3 10 8 10 11 0 2 -4 4 -10 4 -5 0 -10
-5 -10 -11z"/>
<path d="M2530 1719 c0 -5 5 -7 10 -4 6 3 10 8 10 11 0 2 -4 4 -10 4 -5 0 -10
-5 -10 -11z"/>
<path d="M2570 1719 c0 -5 5 -7 10 -4 6 3 10 8 10 11 0 2 -4 4 -10 4 -5 0 -10
-5 -10 -11z"/>
<path d="M2610 1719 c0 -5 5 -7 10 -4 6 3 10 8 10 11 0 2 -4 4 -10 4 -5 0 -10
-5 -10 -11z"/>
<path d="M2650 1719 c0 -5 5 -7 10 -4 6 3 10 8 10 11 0 2 -4 4 -10 4 -5 0 -10
-5 -10 -11z"/>
<path d="M2690 1719 c0 -5 5 -7 10 -4 6 3 10 8 10 11 0 2 -4 4 -10 4 -5 0 -10
-5 -10 -11z"/>
<path d="M2730 1719 c0 -5 5 -7 10 -4 6 3 10 8 10 11 0 2 -4 4 -10 4 -5 0 -10
-5 -10 -11z"/>
<path d="M2770 1719 c0 -5 5 -7 10 -4 6 3 10 8 10 11 0 2 -4 4 -10 4 -5 0 -10
-5 -10 -11z"/>
<path d="M2810 1719 c0 -5 5 -7 10 -4 6 3 10 8 10 11 0 2 -4 4 -10 4 -5 0 -10
-5 -10 -11z"/>
<path d="M2850 1719 c0 -5 5 -7 10 -4 6 3 10 8 10 11 0 2 -4 4 -10 4 -5 0 -10
-5 -10 -11z"/>
<path d="M2890 1719 c0 -5 5 -7 10 -4 6 3 10 8 10 11 0 2 -4 4 -10 4 -5 0 -10
-5 -10 -11z"/>
<path d="M2930 1719 c0 -5 5 -7 10 -4 6 3 10 8 10 11 0 2 -4 4 -10 4 -5 0 -10
-5 -10 -11z"/>
<path d="M2970 1719 c0 -5 5 -7 10 -4 6 3 10 8 10 11 0 2 -4 4 -10 4 -5 0 -10
-5 -10 -11z"/>
<path d="M3010 1719 c0 -5 5 -7 10 -4 6 3 10 8 10 11 0 2 -4 4 -10 4 -5 0 -10
-5 -10 -11z"/>
<path d="M3050 1719 c0 -5 5 -7 10 -4 6 3 10 8 10 11 0 2 -4 4 -10 4 -5 0 -10
-5 -10 -11z"/>
<path d="M3090 1719 c0 -5 5 -7 10 -4 6 3 10 8 10 11 0 2 -4 4 -10 4 -5 0 -10
-5 -10 -11z"/>
<path d="M3130 1719 c0 -5 5 -7 10 -4 6 3 10 8 10 11 0 2 -4 4 -10 4 -5 0 -10
-5 -10 -11z"/>
<path d="M3170 1719 c0 -5 5 -7 10 -4 6 3 10 8 10 11 0 2 -4 4 -10 4 -5 0 -10
-5 -10 -11z"/>
<path d="M3210 1719 c0 -5 5 -7 10 -4 6 3 10 8 10 11 0 2 -4 4 -10 4 -5 0 -10
-5 -10 -11z"/>
<path d="M3250 1719 c0 -5 5 -7 10 -4 6 3 10 8 10 11 0 2 -4 4 -10 4 -5 0 -10
-5 -10 -11z"/>
<path d="M3290 1719 c0 -5 5 -7 10 -4 6 3 10 8 10 11 0 2 -4 4 -10 4 -5 0 -10
-5 -10 -11z"/>
<path d="M3330 1719 c0 -5 5 -7 10 -4 6 3 10 8 10 11 0 2 -4 4 -10 4 -5 0 -10
-5 -10 -11z"/>
<path d="M3370 1719 c0 -5 5 -7 10 -4 6 3 10 8 10 11 0 2 -4 4 -10 4 -5 0 -10
-5 -10 -11z"/>
<path d="M3410 1719 c0 -5 5 -7 10 -4 6 3 10 8 10 11 0 2 -4 4 -10 4 -5 0 -10
-5 -10 -11z"/>
<path d="M3450 1719 c0 -5 5 -7 10 -4 6 3 10 8 10 11 0 2 -4 4 -10 4 -5 0 -10
-5 -10 -11z"/>
<path d="M3490 1719 c0 -5 5 -7 10 -4 6 3 10 8 10 11 0 2 -4 4 -10 4 -5 0 -10
-5 -10 -11z"/>
<path d="M3530 1719 c0 -5 5 -7 10 -4 6 3 10 8 10 11 0 2 -4 4 -10 4 -5 0 -10
-5 -10 -11z"/>
<path d="M3570 1719 c0 -5 5 -7 10 -4 6 3 10 8 10 11 0 2 -4 4 -10 4 -5 0 -10
-5 -10 -11z"/>
<path d="M3610 1719 c0 -5 5 -7 10 -4 6 3 10 8 10 11 0 2 -4 4 -10 4 -5 0 -10
-5 -10 -11z"/>
<path d="M3650 1719 c0 -5 5 -7 10 -4 6 3 10 8 10 11 0 2 -4 4 -10 4 -5 0 -10
-5 -10 -11z"/>
<path d="M3690 1719 c0 -5 5 -7 10 -4 6 3 10 8 10 11 0 2 -4 4 -10 4 -5 0 -10
-5 -10 -11z"/>
<path d="M3730 1719 c0 -5 5 -7 10 -4 6 3 10 8 10 11 0 2 -4 4 -10 4 -5 0 -10
-5 -10 -11z"/>
<path d="M3770 1719 c0 -5 5 -7 10 -4 6 3 10 8 10 11 0 2 -4 4 -10 4 -5 0 -10
-5 -10 -11z"/>
<path d="M3810 1719 c0 -5 5 -7 10 -4 6 3 10 8 10 11 0 2 -4 4 -10 4 -5 0 -10
-5 -10 -11z"/>
<path d="M3850 1719 c0 -5 5 -7 10 -4 6 3 10 8 10 11 0 2 -4 4 -10 4 -5 0 -10
-5 -10 -11z"/>
<path d="M3890 1719 c0 -5 5 -7 10 -4 6 3 10 8 10 11 0 2 -4 4 -10 4 -5 0 -10
-5 -10 -11z"/>
<path d="M3930 1719 c0 -5 5 -7 10 -4 6 3 10 8 10 11 0 2 -4 4 -10 4 -5 0 -10
-5 -10 -11z"/>
<path d="M3970 1719 c0 -5 5 -7 10 -4 6 3 10 8 10 11 0 2 -4 4 -10 4 -5 0 -10
-5 -10 -11z"/>
<path d="M4010 1719 c0 -5 5 -7 10 -4 6 3 10 8 10 11 0 2 -4 4 -10 4 -5 0 -10
-5 -10 -11z"/>
<path d="M4050 1719 c0 -5 5 -7 10 -4 6 3 10 8 10 11 0 2 -4 4 -10 4 -5 0 -10
-5 -10 -11z"/>
<path d="M4090 1719 c0 -5 5 -7 10 -4 6 3 10 8 10 11 0 2 -4 4 -10 4 -5 0 -10
-5 -10 -11z"/>
<path d="M4130 1719 c0 -5 5 -7 10 -4 6 3 10 8 10 11 0 2 -4 4 -10 4 -5 0 -10
-5 -10 -11z"/>
<path d="M4170 1719 c0 -5 5 -7 10 -4 6 3 10 8 10 11 0 2 -4 4 -10 4 -5 0 -10
-5 -10 -11z"/>
<path d="M4210 1719 c0 -5 5 -7 10 -4 6 3 10 8 10 11 0 2 -4 4 -10 4 -5 0 -10
-5 -10 -11z"/>
<path d="M4250 1719 c0 -5 5 -7 10 -4 6 3 10 8 10 11 0 2 -4 4 -10 4 -5 0 -10
-5 -10 -11z"/>
<path d="M4290 1719 c0 -5 5 -7 10 -4 6 3 10 8 10 11 0 2 -4 4 -10 4 -5 0 -10
-5 -10 -11z"/>
<path d="M4330 1719 c0 -5 5 -7 10 -4 6 3 10 8 10 11 0 2 -4 4 -10 4 -5 0 -10
-5 -10 -11z"/>
<path d="M4370 1720 c0 -5 5 -10 10 -10 6 0 10 5 10 10 0 6 -4 10 -10 10 -5 0
-10 -4 -10 -10z"/>
<path d="M1118 1713 c7 -3 16 -2 19 1 4 3 -2 6 -13 5 -11 0 -14 -3 -6 -6z"/>
<path d="M1068 1703 c7 -3 16 -2 19 1 4 3 -2 6 -13 5 -11 0 -14 -3 -6 -6z"/>
<path d="M905 1680 c-49 -10 -79 -18 -65 -19 14 0 66 8 115 18 50 10 79 19 65
19 -14 0 -65 -8 -115 -18z"/>
<path d="M565 1670 c10 -11 20 -20 23 -20 3 0 -3 9 -13 20 -10 11 -20 20 -23
20 -3 0 3 -9 13 -20z"/>
<path d="M773 1653 c9 -2 23 -2 30 0 6 3 -1 5 -18 5 -16 0 -22 -2 -12 -5z"/>
</g>
</svg>
